<mxfile host="app.diagrams.net" modified="2022-08-26T09:16:57.446Z" agent="5.0 (Macintosh; Intel Mac OS X 10_15_7) AppleWebKit/537.36 (KHTML, like Gecko) Chrome/104.0.0.0 Safari/537.36" etag="85JNejg4kJsSzzgzV5vR" version="18.1.3" type="github">
  <diagram id="Cd5y1kNHd57_tZJnAyKG" name="Page-1">
    <mxGraphModel dx="1042" dy="563" grid="1" gridSize="10" guides="1" tooltips="1" connect="1" arrows="1" fold="1" page="1" pageScale="1" pageWidth="827" pageHeight="1169" math="0" shadow="0">
      <root>
        <mxCell id="0" />
        <mxCell id="1" parent="0" />
        <mxCell id="FE19WrhtxEeYcqXIJ0xn-2" value="AWS Cloud" style="sketch=0;outlineConnect=0;gradientColor=none;html=1;whiteSpace=wrap;fontSize=12;fontStyle=0;shape=mxgraph.aws4.group;grIcon=mxgraph.aws4.group_aws_cloud;strokeColor=#858B94;fillColor=none;verticalAlign=top;align=left;spacingLeft=30;fontColor=#858B94;dashed=0;" parent="1" vertex="1">
          <mxGeometry x="60" y="90" width="710" height="390" as="geometry" />
        </mxCell>
        <mxCell id="DkJPr1J9yXdr6lBRk-ze-4" value="" style="rounded=1;whiteSpace=wrap;html=1;dashed=1;" parent="1" vertex="1">
          <mxGeometry x="480" y="120" width="220" height="320" as="geometry" />
        </mxCell>
        <mxCell id="DkJPr1J9yXdr6lBRk-ze-2" value="" style="rounded=1;whiteSpace=wrap;html=1;dashed=1;" parent="1" vertex="1">
          <mxGeometry x="150" y="120" width="220" height="320" as="geometry" />
        </mxCell>
        <mxCell id="cIw4jWMmGr2bx2FsddDH-3" style="edgeStyle=orthogonalEdgeStyle;rounded=0;orthogonalLoop=1;jettySize=auto;html=1;" parent="1" source="FE19WrhtxEeYcqXIJ0xn-3" target="cIw4jWMmGr2bx2FsddDH-2" edge="1">
          <mxGeometry relative="1" as="geometry" />
        </mxCell>
        <mxCell id="FE19WrhtxEeYcqXIJ0xn-3" value="Amazon EMR 5.X" style="outlineConnect=0;dashed=0;verticalLabelPosition=bottom;verticalAlign=top;align=center;html=1;shape=mxgraph.aws3.emr_cluster;fillColor=#F58534;gradientColor=none;" parent="1" vertex="1">
          <mxGeometry x="230" y="170" width="55.5" height="60" as="geometry" />
        </mxCell>
        <mxCell id="zK95P9p7USM_5l9Eyr0W-2" style="edgeStyle=orthogonalEdgeStyle;rounded=0;orthogonalLoop=1;jettySize=auto;html=1;exitX=1;exitY=0.5;exitDx=0;exitDy=0;exitPerimeter=0;shape=flexArrow;" parent="1" source="cIw4jWMmGr2bx2FsddDH-2" target="zK95P9p7USM_5l9Eyr0W-1" edge="1">
          <mxGeometry relative="1" as="geometry" />
        </mxCell>
        <mxCell id="zK95P9p7USM_5l9Eyr0W-3" value="Upgrade" style="edgeLabel;html=1;align=center;verticalAlign=middle;resizable=0;points=[];fontSize=15;" parent="zK95P9p7USM_5l9Eyr0W-2" vertex="1" connectable="0">
          <mxGeometry x="-0.0149" relative="1" as="geometry">
            <mxPoint as="offset" />
          </mxGeometry>
        </mxCell>
        <mxCell id="cIw4jWMmGr2bx2FsddDH-2" value="Hive Metastore 2.X" style="sketch=0;points=[[0,0,0],[0.25,0,0],[0.5,0,0],[0.75,0,0],[1,0,0],[0,1,0],[0.25,1,0],[0.5,1,0],[0.75,1,0],[1,1,0],[0,0.25,0],[0,0.5,0],[0,0.75,0],[1,0.25,0],[1,0.5,0],[1,0.75,0]];outlineConnect=0;fontColor=#232F3E;gradientColor=#4D72F3;gradientDirection=north;fillColor=#3334B9;strokeColor=#ffffff;dashed=0;verticalLabelPosition=bottom;verticalAlign=top;align=center;html=1;fontSize=12;fontStyle=0;aspect=fixed;shape=mxgraph.aws4.resourceIcon;resIcon=mxgraph.aws4.rds;" parent="1" vertex="1">
          <mxGeometry x="217.75" y="330" width="80" height="80" as="geometry" />
        </mxCell>
        <mxCell id="DkJPr1J9yXdr6lBRk-ze-7" style="edgeStyle=orthogonalEdgeStyle;rounded=0;orthogonalLoop=1;jettySize=auto;html=1;exitX=0.5;exitY=1;exitDx=0;exitDy=0;exitPerimeter=0;entryX=0.5;entryY=0;entryDx=0;entryDy=0;entryPerimeter=0;" parent="1" source="cIw4jWMmGr2bx2FsddDH-4" target="zK95P9p7USM_5l9Eyr0W-1" edge="1">
          <mxGeometry relative="1" as="geometry">
            <mxPoint x="589" y="330" as="targetPoint" />
          </mxGeometry>
        </mxCell>
        <mxCell id="cIw4jWMmGr2bx2FsddDH-4" value="Amazon EMR 6.X" style="outlineConnect=0;dashed=0;verticalLabelPosition=bottom;verticalAlign=top;align=center;html=1;shape=mxgraph.aws3.emr_cluster;fillColor=#F58534;gradientColor=none;" parent="1" vertex="1">
          <mxGeometry x="562.25" y="160" width="55.5" height="63" as="geometry" />
        </mxCell>
        <mxCell id="DkJPr1J9yXdr6lBRk-ze-3" value="Old Cluster" style="text;html=1;strokeColor=none;fillColor=none;align=center;verticalAlign=middle;whiteSpace=wrap;rounded=0;" parent="1" vertex="1">
          <mxGeometry x="230" y="130" width="70" height="30" as="geometry" />
        </mxCell>
        <mxCell id="DkJPr1J9yXdr6lBRk-ze-5" value="New Cluster" style="text;html=1;strokeColor=none;fillColor=none;align=center;verticalAlign=middle;whiteSpace=wrap;rounded=0;" parent="1" vertex="1">
          <mxGeometry x="562.25" y="128" width="70" height="30" as="geometry" />
        </mxCell>
        <mxCell id="DkJPr1J9yXdr6lBRk-ze-6" value="&lt;font style=&quot;font-size: 15px&quot;&gt;Upgrade&lt;/font&gt;" style="shape=singleArrow;whiteSpace=wrap;html=1;dashed=1;" parent="1" vertex="1">
          <mxGeometry x="375" y="241.75" width="100" height="60" as="geometry" />
        </mxCell>
        <mxCell id="zK95P9p7USM_5l9Eyr0W-1" value="Hive Metastore 3.X" style="sketch=0;points=[[0,0,0],[0.25,0,0],[0.5,0,0],[0.75,0,0],[1,0,0],[0,1,0],[0.25,1,0],[0.5,1,0],[0.75,1,0],[1,1,0],[0,0.25,0],[0,0.5,0],[0,0.75,0],[1,0.25,0],[1,0.5,0],[1,0.75,0]];outlineConnect=0;fontColor=#232F3E;gradientColor=#4D72F3;gradientDirection=north;fillColor=#3334B9;strokeColor=#ffffff;dashed=0;verticalLabelPosition=bottom;verticalAlign=top;align=center;html=1;fontSize=12;fontStyle=0;aspect=fixed;shape=mxgraph.aws4.resourceIcon;resIcon=mxgraph.aws4.aurora;" parent="1" vertex="1">
          <mxGeometry x="550" y="330" width="80" height="80" as="geometry" />
        </mxCell>
      </root>
    </mxGraphModel>
  </diagram>
</mxfile>
